<svg version="1" xmlns="http://www.w3.org/2000/svg" width="397.333" height="397.333" viewBox="0 0 298.000000 298.000000"><path d="M84.5 37.4l-64 37.2-.3 74.5-.2 74.6 65 37.1 65 37.2 64.2-37.3 64.3-37.3.3-74.6.2-74.5-65-37.2C178.3 16.7 148.9 0 148.8.1c-.2 0-29.1 16.8-64.3 37.3zm80.3 46.2c35.9 7.4 59.1 36.8 56.9 72.4-2 32.8-24 57.6-57 64.4-6 1.3-14.4 1.6-39.7 1.6H93V82h32c25.4 0 33.7.3 39.8 1.6z"/><path d="M124 152v42h13.9c7.6 0 16.3-.5 19.2-1 12.4-2.3 22.3-10 28.1-21.8 3.2-6.4 3.3-7.1 3.3-18.7 0-14.9-2-20.7-10-29.3C169 112.9 160 110 138 110h-14v42z"/></svg>